<svg xmlns="http://www.w3.org/2000/svg" viewBox="0 0 640 480" aria-hidden="true" focusable="false"><ellipse cx="320" cy="390" rx="206" ry="26" fill="#2A9D93" opacity=".08"/><circle cx="320" cy="234" r="166" fill="#9ADCD3" opacity=".09"/><g fill="none" stroke="#9ADCD3" stroke-width="5" stroke-linecap="round" stroke-linejoin="round"><rect x="146" y="145" width="306" height="217" rx="28"/><path d="M198 117H469Q494 117 494 147V302"/><path d="M198 302H256M198 324H293"/><path d="M332 296V278M354 307V267M376 298V276M398 289V284"/></g><g transform="translate(316 247) rotate(30) scale(1.05)" fill="#2A9D93"><path d="M0 0C-32-14-43-45-30-78C4-72 25-35 0 0Z"/><path d="M0-5L-22-61" stroke="#E3F3F1" stroke-width="2" opacity=".5"/></g><g transform="translate(275 250) rotate(-52) scale(0.75)" fill="#9ADCD3"><path d="M0 0C-32-14-43-45-30-78C4-72 25-35 0 0Z"/><path d="M0-5L-22-61" stroke="#E3F3F1" stroke-width="2" opacity=".5"/></g><g transform="translate(461 346) rotate(80) scale(0.5)" fill="#9ADCD3"><path d="M0 0C-32-14-43-45-30-78C4-72 25-35 0 0Z"/><path d="M0-5L-22-61" stroke="#E3F3F1" stroke-width="2" opacity=".5"/></g><circle cx="126" cy="274" r="5" fill="#9ADCD3" opacity=".45"/><circle cx="510" cy="244" r="4" fill="#2A9D93" opacity=".5"/></svg>
